<svg width="35" height="25" viewBox="0 0 35 25" fill="none" xmlns="http://www.w3.org/2000/svg">
<path d="M3.15552 18.7921V13.9602H34.9999V19.329C34.7704 19.9732 33.7567 20.8501 33.2786 21.2081C28.9753 23.624 22.3769 25.2346 13.7703 24.1609C6.88504 23.3019 3.82492 20.2238 3.15552 18.7921Z" fill="#F8AE0D"/>
<ellipse cx="18.9344" cy="13.1541" rx="16.0656" ry="6.71097" fill="#FFD358"/>
<ellipse cx="18.9348" cy="13.1543" rx="14.3443" ry="5.10034" fill="#DFA20B"/>
<path d="M0.286621 12.349V7.51709H32.131V12.8859C31.9015 13.5301 30.8878 14.407 30.4097 14.7649C26.1064 17.1809 19.508 18.7915 10.9014 17.7178C4.01614 16.8588 0.956022 13.7807 0.286621 12.349Z" fill="#F8AE0D"/>
<ellipse cx="16.0656" cy="6.71097" rx="16.0656" ry="6.71097" fill="#FFD358"/>
<ellipse cx="16.0657" cy="6.70825" rx="14.3443" ry="5.10034" fill="#F8AE0D"/>
</svg>
