<svg width="48" height="28" viewBox="0 0 48 28" fill="none" xmlns="http://www.w3.org/2000/svg">
<path d="M5.63507 26.7084L0.200063 7.27051C-0.162271 6.61575 0.0490908 5.90646 0.200063 5.63366C1.1059 4.81522 1.93625 5.15623 2.23819 5.42905L10.1642 10.1351C11.2512 10.7898 10.7681 11.7719 10.3907 12.1812C9.3037 13.4907 9.93778 15.3185 10.3907 16.0687C10.8436 16.7508 12.2024 18.0739 14.014 17.9102C16.2786 17.7056 16.958 16.8872 17.8638 15.6595C18.7697 14.4319 18.7697 11.9766 16.958 11.1581C15.5087 10.5034 16.0522 9.24844 16.5051 8.70282L22.6195 0.723043C23.8876 -0.586458 24.9595 0.177418 25.337 0.723043L31.6778 8.70282C31.9797 9.24844 32.3119 10.4625 31.2249 10.9535C30.1379 11.4446 29.7152 12.6586 29.6397 13.2042C29.5642 14.9093 30.319 18.2376 33.9424 17.9102C38.4716 17.501 38.698 13.2042 37.5657 12.1812C36.6599 11.3627 37.1883 10.4761 37.5657 10.1351L45.0389 5.63364C46.307 4.8152 47.228 5.15621 47.5299 5.42903C48.2546 5.7564 47.9828 7.0659 47.7564 7.67973C46.0202 13.477 42.5025 25.3989 42.3214 26.7084C42.1402 28.0179 40.4342 28.0725 39.6038 27.9361C36.4334 27.5269 28.6885 26.7084 23.0724 26.7084C17.4562 26.7084 10.6172 27.5269 7.89965 27.9361C6.26915 28.2634 5.71055 27.254 5.63507 26.7084Z" fill="#F8AE0D"/>
</svg>
