<svg width="40" height="40" viewBox="0 0 40 40" fill="none" xmlns="http://www.w3.org/2000/svg">
<rect width="40" height="40" rx="20" fill="#E95877"/>
<path d="M25.9404 16.2692C26.2165 16.0096 26.5839 15.8661 26.9651 15.8689C27.3463 15.8718 27.7115 16.0208 27.9836 16.2844C28.2557 16.5481 28.4135 16.9058 28.4235 17.2821C28.4336 17.6584 28.2953 18.0239 28.0376 18.3014L20.2169 27.9593C20.0825 28.1023 19.9202 28.2171 19.7397 28.2968C19.5593 28.3765 19.3644 28.4194 19.1668 28.423C18.9692 28.4266 18.7729 28.3908 18.5896 28.3178C18.4063 28.2448 18.2398 28.136 18.1001 27.998L12.9137 22.8768C12.7693 22.7439 12.6534 22.5836 12.5731 22.4056C12.4927 22.2275 12.4495 22.0353 12.446 21.8404C12.4425 21.6455 12.4789 21.4519 12.5528 21.2711C12.6267 21.0904 12.7368 20.9262 12.8764 20.7884C13.016 20.6505 13.1822 20.5419 13.3653 20.4689C13.5483 20.3958 13.7444 20.36 13.9418 20.3634C14.1392 20.3669 14.3338 20.4095 14.5142 20.4889C14.6945 20.5682 14.8568 20.6826 14.9914 20.8252L19.0958 24.8761L25.9031 16.3117L25.9404 16.2692Z" fill="white"/>
</svg>
