<svg width="17" height="17" viewBox="0 0 17 17" fill="none" xmlns="http://www.w3.org/2000/svg">
<g clip-path="url(#clip0_101_98)">
<path d="M13.6574 0.155055C13.5578 0.0554605 13.4227 -0.000488281 13.2818 -0.000488281C13.141 -0.000488281 13.0059 0.0554605 12.9062 0.155055L11.1563 1.90499L15.095 5.84368L16.8449 4.0948C16.8944 4.04546 16.9336 3.98683 16.9604 3.92229C16.9872 3.85775 17.001 3.78856 17.001 3.71868C17.001 3.6488 16.9872 3.57961 16.9604 3.51507C16.9336 3.45053 16.8944 3.3919 16.8449 3.34255L13.6574 0.155055ZM14.3438 6.59487L10.4051 2.65618L3.49885 9.56243H3.71879C3.85968 9.56243 3.99481 9.6184 4.09444 9.71803C4.19407 9.81766 4.25004 9.95278 4.25004 10.0937V10.6249H4.78129C4.92218 10.6249 5.05731 10.6809 5.15694 10.7805C5.25657 10.8802 5.31254 11.0153 5.31254 11.1562V11.6874H5.84379C5.98468 11.6874 6.11981 11.7434 6.21944 11.843C6.31907 11.9427 6.37504 12.0778 6.37504 12.2187V12.7499H6.90629C7.04718 12.7499 7.18231 12.8059 7.28194 12.9055C7.38157 13.0052 7.43754 13.1403 7.43754 13.2812V13.5011L14.3438 6.59487ZM6.40904 14.5296C6.38668 14.4702 6.37517 14.4072 6.37504 14.3437V13.8124H5.84379C5.70289 13.8124 5.56777 13.7565 5.46814 13.6568C5.36851 13.5572 5.31254 13.4221 5.31254 13.2812V12.7499H4.78129C4.64039 12.7499 4.50527 12.694 4.40564 12.5943C4.30601 12.4947 4.25004 12.3596 4.25004 12.2187V11.6874H3.71879C3.57789 11.6874 3.44277 11.6315 3.34314 11.5318C3.24351 11.4322 3.18754 11.2971 3.18754 11.1562V10.6249H2.65629C2.59277 10.6248 2.5298 10.6133 2.47035 10.5909L2.28016 10.7801C2.22953 10.831 2.18977 10.8918 2.16329 10.9586L0.0382881 16.2711C-0.00035574 16.3676 -0.00981571 16.4734 0.011081 16.5752C0.0319776 16.6771 0.082312 16.7706 0.155844 16.8441C0.229376 16.9177 0.322871 16.968 0.42474 16.9889C0.526609 17.0098 0.63237 17.0003 0.728913 16.9617L6.04141 14.8367C6.1082 14.8102 6.16893 14.7704 6.21991 14.7198L6.40904 14.5296Z" fill="white"/>
</g>
<defs>
<clipPath id="clip0_101_98">
<rect width="17" height="17" fill="white"/>
</clipPath>
</defs>
</svg>
